<svg width="54" height="54" viewBox="0 0 54 54" fill="none" xmlns="http://www.w3.org/2000/svg">
<path d="M44.2648 0H9.73519C4.35859 0 0 4.35859 0 9.73519V44.2648C0 49.6414 4.35859 54 9.73519 54H44.2648C49.6414 54 54 49.6414 54 44.2648V9.73519C54 4.35859 49.6414 0 44.2648 0Z" fill="#B30B00"/>
<path d="M44.2849 31.2C41.6849 28.5 34.5849 29.6 32.8849 29.8C30.3849 27.4 28.6849 24.5 28.0849 23.5C28.9849 20.8 29.5849 18.1 29.6849 15.2C29.6849 12.7 28.6849 10 25.8849 10C24.8849 10 23.9849 10.6 23.4849 11.4C22.2849 13.5 22.7849 17.7 24.6849 22C23.5849 25.1 22.5849 28.1 19.7849 33.4C16.8849 34.6 10.7849 37.4 10.2849 40.4C10.0849 41.3 10.3849 42.2 11.0849 42.9C11.7849 43.5 12.6849 43.8 13.5849 43.8C17.2849 43.8 20.8849 38.7 23.3849 34.4C25.4849 33.7 28.7849 32.7 32.0849 32.1C35.9849 35.5 39.3849 36 41.1849 36C43.5849 36 44.4849 35 44.7849 34.1C45.2849 33.1 44.9849 32 44.2849 31.2ZM41.7849 32.9C41.6849 33.6 40.7849 34.3 39.1849 33.9C37.2849 33.4 35.5849 32.5 34.0849 31.3C35.3849 31.1 38.2849 30.8 40.3849 31.2C41.1849 31.4 41.9849 31.9 41.7849 32.9ZM25.0849 12.3C25.2849 12 25.5849 11.8 25.8849 11.8C26.7849 11.8 26.9849 12.9 26.9849 13.8C26.8849 15.9 26.4849 18 25.7849 20C24.2849 16 24.5849 13.2 25.0849 12.3ZM24.8849 31.7C25.6849 30.1 26.7849 27.3 27.1849 26.1C28.0849 27.6 29.5849 29.4 30.3849 30.2C30.3849 30.3 27.2849 30.9 24.8849 31.7ZM18.9849 35.7C16.6849 39.5 14.2849 41.9 12.9849 41.9C12.7849 41.9 12.5849 41.8 12.3849 41.7C12.0849 41.5 11.9849 41.2 12.0849 40.8C12.3849 39.4 14.9849 37.5 18.9849 35.7Z" fill="white"/>
</svg>
