<svg width="16" height="16" viewBox="0 0 16 16" fill="none" xmlns="http://www.w3.org/2000/svg">
<path d="M13.75 16H2.25C1.00977 16 0 14.9907 0 13.75V2.25C0 1.00928 1.00977 0 2.25 0H13.75C14.9902 0 16 1.00928 16 2.25V13.75C16 14.9907 14.9902 16 13.75 16ZM2.25 1.5C1.83691 1.5 1.5 1.83643 1.5 2.25V13.75C1.5 14.1636 1.83691 14.5 2.25 14.5H13.75C14.1631 14.5 14.5 14.1636 14.5 13.75V2.25C14.5 1.83643 14.1631 1.5 13.75 1.5H2.25Z" fill="#292929"/>
<path d="M7.25 3H3.75C3.33579 3 3 3.33579 3 3.75V12.25C3 12.6642 3.33579 13 3.75 13H7.25C7.66421 13 8 12.6642 8 12.25V3.75C8 3.33579 7.66421 3 7.25 3Z" fill="#292929"/>
</svg>
