<svg width="20" height="20" viewBox="0 0 20 20" fill="none" xmlns="http://www.w3.org/2000/svg">
<path d="M13.5 9.26099V4.19629C13.5 2.1582 11.9297 0.5 10 0.5C8.07031 0.5 6.5 2.1582 6.5 4.19629V9.26099C5.2793 10.2708 4.5 11.7962 4.5 13.5C4.5 16.5322 6.96777 19 10 19C13.0322 19 15.5 16.5322 15.5 13.5C15.5 11.7961 14.7207 10.2708 13.5 9.26099ZM10 17.5C7.79395 17.5 6 15.706 6 13.5C6 12.4689 6.40259 11.5371 7.04541 10.8272C7.32153 10.5221 7.64233 10.2647 8 10.0562V4.19629C8 2.98535 8.89746 2 10 2C11.1025 2 12 2.98535 12 4.19629V10.0562C12.3577 10.2647 12.6785 10.5221 12.9546 10.8272C13.5974 11.5371 14 12.4689 14 13.5C14 15.706 12.206 17.5 10 17.5Z" fill="#292929"/>
<path d="M10.75 11.3877V6.75C10.75 6.33594 10.4141 6 10 6C9.58594 6 9.25 6.33594 9.25 6.75V11.3877C8.37793 11.6978 7.75 12.5217 7.75 13.5C7.75 14.7427 8.75732 15.75 10 15.75C11.2427 15.75 12.25 14.7427 12.25 13.5C12.25 12.5217 11.6221 11.6978 10.75 11.3877Z" fill="#292929"/>
</svg>
